<?xml version="1.0" encoding="utf-8"?>
        <svg xmlns="http://www.w3.org/2000/svg"
             xmlns:xlink="http://www.w3.org/1999/xlink" width="1000" height="1414" >
        <defs>
        <style type="text/css"><![CDATA[
        line, path {
          stroke: black;
          stroke-width: 4;
          stroke-linecap: square;
        }
        path {
          fill: none;
        }
        
        text {
          font: bold 24px Verdana, Helvetica, Arial, sans-serif;
        }
      
        ]]>
        </style>
        </defs>
        <text x="436.0" y="36.0" text-anchor="middle">R</text>
<text x="436.0" y="68.0" text-anchor="middle">O</text>
<text x="468.0" y="68.0" text-anchor="middle">E</text>
<text x="500.0" y="68.0" text-anchor="middle">L</text>
<text x="532.0" y="68.0" text-anchor="middle">T</text>
<text x="564.0" y="68.0" text-anchor="middle">R</text>
<text x="596.0" y="68.0" text-anchor="middle">U</text>
<text x="628.0" y="68.0" text-anchor="middle">T</text>
<text x="436.0" y="100.0" text-anchor="middle">D</text>
<text x="628.0" y="100.0" text-anchor="middle">E</text>
<text x="340.0" y="132.0" text-anchor="middle">E</text>
<text x="372.0" y="132.0" text-anchor="middle">F</text>
<text x="404.0" y="132.0" text-anchor="middle">F</text>
<text x="436.0" y="132.0" text-anchor="middle">A</text>
<text x="468.0" y="132.0" text-anchor="middle">R</text>
<text x="500.0" y="132.0" text-anchor="middle">I</text>
<text x="532.0" y="132.0" text-anchor="middle">G</text>
<text x="596.0" y="132.0" text-anchor="middle">S</text>
<text x="276.0" y="164.0" text-anchor="middle">L</text>
<text x="340.0" y="164.0" text-anchor="middle">K</text>
<text x="372.0" y="164.0" text-anchor="middle">C</text>
<text x="404.0" y="164.0" text-anchor="middle">O</text>
<text x="436.0" y="164.0" text-anchor="middle">R</text>
<text x="468.0" y="164.0" text-anchor="middle">T</text>
<text x="500.0" y="164.0" text-anchor="middle">E</text>
<text x="532.0" y="164.0" text-anchor="middle">P</text>
<text x="564.0" y="164.0" text-anchor="middle">R</text>
<text x="596.0" y="164.0" text-anchor="middle">S</text>
<text x="308.0" y="196.0" text-anchor="middle">U</text>
<text x="436.0" y="196.0" text-anchor="middle">B</text>
<text x="532.0" y="196.0" text-anchor="middle">O</text>
<text x="596.0" y="196.0" text-anchor="middle">H</text>
<text x="628.0" y="196.0" text-anchor="middle">U</text>
<text x="340.0" y="228.0" text-anchor="middle">N</text>
<text x="436.0" y="228.0" text-anchor="middle">A</text>
<text x="500.0" y="228.0" text-anchor="middle">H</text>
<text x="564.0" y="228.0" text-anchor="middle">T</text>
<text x="596.0" y="228.0" text-anchor="middle">A</text>
<text x="628.0" y="228.0" text-anchor="middle">N</text>
<text x="244.0" y="260.0" text-anchor="middle">P</text>
<text x="372.0" y="260.0" text-anchor="middle">A</text>
<text x="436.0" y="260.0" text-anchor="middle">L</text>
<text x="468.0" y="260.0" text-anchor="middle">D</text>
<text x="532.0" y="260.0" text-anchor="middle">O</text>
<text x="596.0" y="260.0" text-anchor="middle">D</text>
<text x="628.0" y="260.0" text-anchor="middle">I</text>
<text x="276.0" y="292.0" text-anchor="middle">A</text>
<text x="404.0" y="292.0" text-anchor="middle">R</text>
<text x="436.0" y="292.0" text-anchor="middle">E</text>
<text x="500.0" y="292.0" text-anchor="middle">U</text>
<text x="596.0" y="292.0" text-anchor="middle">O</text>
<text x="628.0" y="292.0" text-anchor="middle">C</text>
<text x="308.0" y="324.0" text-anchor="middle">R</text>
<text x="404.0" y="324.0" text-anchor="middle">G</text>
<text x="436.0" y="324.0" text-anchor="middle">T</text>
<text x="468.0" y="324.0" text-anchor="middle">C</text>
<text x="596.0" y="324.0" text-anchor="middle">W</text>
<text x="628.0" y="324.0" text-anchor="middle">O</text>
<text x="340.0" y="356.0" text-anchor="middle">R</text>
<text x="372.0" y="356.0" text-anchor="middle">N</text>
<text x="436.0" y="356.0" text-anchor="middle">A</text>
<text x="468.0" y="356.0" text-anchor="middle">I</text>
<text x="596.0" y="356.0" text-anchor="middle">D</text>
<text x="628.0" y="356.0" text-anchor="middle">R</text>
<text x="340.0" y="388.0" text-anchor="middle">I</text>
<text x="372.0" y="388.0" text-anchor="middle">O</text>
<text x="404.0" y="388.0" text-anchor="middle">N</text>
<text x="436.0" y="388.0" text-anchor="middle">L</text>
<text x="500.0" y="388.0" text-anchor="middle">G</text>
<text x="596.0" y="388.0" text-anchor="middle">R</text>
<text x="628.0" y="388.0" text-anchor="middle">N</text>
<text x="308.0" y="420.0" text-anchor="middle">W</text>
<text x="404.0" y="420.0" text-anchor="middle">T</text>
<text x="436.0" y="420.0" text-anchor="middle">O</text>
<text x="532.0" y="420.0" text-anchor="middle">E</text>
<text x="596.0" y="420.0" text-anchor="middle">A</text>
<text x="436.0" y="452.0" text-anchor="middle">C</text>
<text x="564.0" y="452.0" text-anchor="middle">R</text>
<text x="596.0" y="452.0" text-anchor="middle">G</text>
<text x="436.0" y="484.0" text-anchor="middle">O</text>
<text x="596.0" y="484.0" text-anchor="middle">O</text>
<text x="436.0" y="516.0" text-anchor="middle">H</text>
<text x="596.0" y="516.0" text-anchor="middle">N</text>
<text x="436.0" y="548.0" text-anchor="middle">C</text><text x="300.0" y="580.0" text-anchor="middle" class="wordlist">CHOCOLATE LABRADOR</text>
<text x="300.0" y="605.0" text-anchor="middle" class="wordlist">GIRAFFE</text>
<text x="300.0" y="630.0" text-anchor="middle" class="wordlist">LUNAR TIGER</text>
<text x="300.0" y="655.0" text-anchor="middle" class="wordlist">PARROT</text>
<text x="300.0" y="680.0" text-anchor="middle" class="wordlist">PET ROCK</text>
<text x="700.0" y="580.0" text-anchor="middle" class="wordlist">SHADOW DRAGON</text>
<text x="700.0" y="605.0" text-anchor="middle" class="wordlist">TOUCAN</text>
<text x="700.0" y="630.0" text-anchor="middle" class="wordlist">TURTLE</text>
<text x="700.0" y="655.0" text-anchor="middle" class="wordlist">UNICORN</text>
<text x="700.0" y="680.0" text-anchor="middle" class="wordlist">WINGED HORSE</text></svg>
